<?xml version="1.0" encoding="UTF-8"?>
<!-- Generator: visioncortex VTracer 0.6.3 -->
<svg version="1.1" xmlns="http://www.w3.org/2000/svg" viewBox="300 -240 500 500" width="603" height="267" >
<path d="M0 0 C198.99 0 397.98 0 603 0 C603 88.11 603 176.22 603 267 C404.01 267 205.02 267 0 267 C0 178.89 0 90.78 0 0 Z " fill="#FEFEFE" transform="translate(0,0)"/>
<path d="M0 0 C12.87 0 25.74 0 39 0 C39 6.6 39 13.2 39 20 C40.18 18.97 41.35 17.94 42.56 16.88 C46.35 13.55 50.17 10.28 54 7 C62.58 15.58 71.16 24.16 80 33 C75.46 42.07 67.16 45.03 58.25 48.58 C56.23 49.38 54.23 50.2 52.23 51.03 C42.47 55 42.47 55 39 55 C38.46 54.28 37.93 53.56 37.38 52.81 C33.45 48.17 29.08 45.43 22.99 44.58 C14.17 44.35 8.3 46.6 1.58 52.21 C-2.59 56.94 -3.05 60.64 -2.75 66.75 C-3.29 71.52 -3.29 71.52 -5 74 C-11.04 78.29 -18.31 80.66 -25.26 83.04 C-27.57 83.85 -29.76 84.78 -31.99 85.77 C-36 87 -36 87 -48 87 C-48 74.46 -48 61.92 -48 49 C-38.1 48.5 -38.1 48.5 -28 48 C-32.62 43.38 -37.24 38.76 -42 34 C-38.38 29.78 -34.95 25.83 -31.04 21.94 C-30.16 21.06 -29.27 20.18 -28.36 19.28 C-27.46 18.38 -26.56 17.48 -25.62 16.56 C-24.7 15.64 -23.77 14.72 -22.82 13.77 C-20.55 11.51 -18.27 9.25 -16 7 C-12 8.84 -9.28 11.49 -6.25 14.62 C-4.52 16.4 -2.78 18.17 -1 20 C-0.67 13.4 -0.34 6.8 0 0 Z " fill="#38446D" transform="translate(56,124)"/>
<path d="M0 0 C3.72 2.16 7 4.12 9 8 C9.44 11.98 9.37 14.3 7.5 17.88 C5.53 21.97 5.27 25.53 6 30 C6.99 32.31 7.98 34.62 9 37 C-0.9 37.5 -0.9 37.5 -11 38 C-9.02 40.31 -7.04 42.62 -5 45 C-2.67 49.12 -2.27 53.36 -3 58 C-5.51 62.8 -9.05 64.02 -13.82 65.98 C-19.69 68.72 -21.86 73.25 -24 79 C-29.29 74.59 -34.19 69.92 -39 65 C-39.07 65.86 -39.15 66.71 -39.23 67.6 C-40.08 74.99 -41.07 80.17 -47 85 C-50.12 86.56 -52.55 86.28 -56 86 C-57.71 84.95 -59.42 83.91 -61.11 82.83 C-66.49 80.46 -72.85 83.28 -78 85 C-78.33 78.73 -78.66 72.46 -79 66 C-80.98 67.65 -82.96 69.3 -85 71 C-89.55 73.65 -94.88 73.94 -100 73 C-104.2 69.42 -105.45 65.93 -107.2 60.83 C-108.48 57.9 -110.31 56.63 -113 55 C-116.18 53.74 -116.18 53.74 -119 53 C-116.93 47.61 -113.11 44.08 -108.08 41.5 C-104.58 39.98 -101.05 38.57 -97.5 37.19 C-96.29 36.7 -95.08 36.21 -93.83 35.71 C-82.83 31.33 -82.83 31.33 -78 31 C-76.78 32.42 -75.57 33.85 -74.46 35.36 C-71.2 39.01 -66.49 40.62 -61.73 41.35 C-55 41.62 -49.02 39.78 -43.25 36.38 C-36.33 29.07 -35.17 21.87 -35 12 C-34.12 11.62 -34.12 11.62 -33.22 11.24 C-30.5 10.08 -27.78 8.91 -25.06 7.75 C-24.14 7.35 -23.21 6.96 -22.26 6.55 C-21.34 6.16 -20.42 5.76 -19.47 5.36 C-18.56 4.97 -17.64 4.58 -16.7 4.17 C-13.39 2.74 -10.11 1.23 -6.84 -0.29 C-4.13 -1.33 -2.65 -1.15 0 0 Z " fill="#C8A15C" transform="translate(134,174)"/>
<path d="M0 0 C0.88 0 1.76 0 2.67 0 C3.62 0.01 4.56 0.01 5.54 0.02 C6.51 0.02 7.48 0.02 8.48 0.02 C11.59 0.03 14.7 0.04 17.81 0.05 C19.91 0.06 22.02 0.06 24.13 0.06 C29.29 0.08 34.46 0.09 39.62 0.11 C39.62 2.75 39.62 5.39 39.62 8.11 C36.98 9.1 34.34 10.09 31.62 11.11 C31.94 11.63 32.26 12.14 32.59 12.67 C35.12 18.69 34.55 27 32.71 33.18 C30.28 38.43 27.8 41.52 22.62 44.11 C19.59 45.12 17.36 45.3 14.18 45.39 C12.59 45.45 12.59 45.45 10.97 45.51 C7.62 45.61 7.62 45.61 4.27 45.72 C2.68 45.78 2.68 45.78 1.06 45.83 C0.09 45.86 -0.88 45.89 -1.88 45.92 C-4.51 46.02 -4.51 46.02 -7.38 47.11 C-7.05 48.43 -6.72 49.75 -6.38 51.11 C-5.02 51.14 -5.02 51.14 -3.63 51.16 C-0.24 51.22 3.15 51.29 6.54 51.38 C8 51.41 9.46 51.44 10.92 51.46 C13.03 51.49 15.14 51.55 17.25 51.6 C18.52 51.63 19.79 51.65 21.09 51.68 C26.21 52.31 29.48 53.85 32.93 57.68 C36.2 62.4 35.84 66.19 35.87 71.8 C35.89 72.69 35.91 73.57 35.93 74.49 C35.97 80.16 35.34 84.11 32.62 89.11 C25.68 95.87 18.47 95.45 9.31 95.43 C8.11 95.44 6.91 95.46 5.68 95.47 C-8.59 95.48 -8.59 95.48 -13.89 90.77 C-18.65 85.43 -19.68 80.62 -19.75 73.61 C-19.78 72.32 -19.81 71.04 -19.84 69.71 C-19.32 65.63 -18.21 64.02 -15.38 61.11 C-15.81 60.25 -15.81 60.25 -16.25 59.36 C-16.81 58.25 -16.81 58.25 -17.38 57.11 C-17.74 56.5 -18.09 55.89 -18.46 55.25 C-20.05 51.55 -19.38 47.94 -18.38 44.11 C-16.32 41.55 -16.32 41.55 -14.38 40.11 C-14.67 39.56 -14.96 39 -15.25 38.43 C-15.63 37.66 -16 36.9 -16.38 36.11 C-16.72 35.42 -17.07 34.73 -17.42 34.02 C-19.75 26.96 -19.75 17.36 -17.47 10.3 C-13.63 3.8 -7.56 -0.02 0 0 Z " fill="#3B466F" transform="translate(175.379638671875,45.886474609375)"/>
<path d="M0 0 C0.9 -0.03 1.81 -0.06 2.74 -0.09 C8.81 -0.15 13.56 0.71 18.56 4.31 C22.24 8.93 23.69 12.49 23.68 18.33 C23.68 19.36 23.68 20.38 23.68 21.43 C23.67 22.53 23.67 23.63 23.66 24.76 C23.66 25.89 23.66 27.02 23.66 28.18 C23.65 31.79 23.64 35.39 23.62 39 C23.62 41.44 23.62 43.89 23.61 46.33 C23.6 52.32 23.58 58.32 23.56 64.31 C20.59 64.31 17.62 64.31 14.56 64.31 C13.9 62.33 13.24 60.35 12.56 58.31 C11.38 58.73 10.2 59.16 8.98 59.59 C7.43 60.14 5.87 60.7 4.31 61.25 C3.15 61.67 3.15 61.67 1.96 62.09 C1.2 62.36 0.45 62.63 -0.33 62.9 C-1.37 63.27 -1.37 63.27 -2.42 63.65 C-8.37 65.61 -13.72 66.32 -19.62 63.75 C-23.93 61.42 -25.41 58.69 -27.44 54.31 C-27.77 53.65 -28.1 52.99 -28.44 52.31 C-29.01 45.17 -29.31 38.41 -25.9 31.96 C-22.76 28.41 -19.62 26.46 -14.91 25.86 C-13.64 25.88 -12.38 25.9 -11.07 25.92 C-10.39 25.93 -9.71 25.93 -9.01 25.94 C-6.86 25.96 -4.71 26.01 -2.56 26.06 C-1.1 26.08 0.37 26.1 1.84 26.12 C5.41 26.16 8.99 26.23 12.56 26.31 C12.42 24.54 12.27 22.77 12.12 21 C12.04 20.01 11.96 19.03 11.88 18.01 C11.64 15.22 11.64 15.22 10.56 12.31 C7.89 11.31 5.34 11.18 2.51 11.18 C1.73 11.18 0.96 11.18 0.16 11.17 C-1.06 11.18 -1.06 11.18 -2.31 11.19 C-3.15 11.19 -3.99 11.19 -4.85 11.19 C-12.08 11.24 -19.24 11.65 -26.44 12.31 C-26.44 9.67 -26.44 7.03 -26.44 4.31 C-25.09 3.83 -23.73 3.35 -22.38 2.88 C-21.24 2.47 -21.24 2.47 -20.09 2.07 C-13.49 0.19 -6.81 0.07 0 0 Z " fill="#3D4770" transform="translate(569.4375,44.6875)"/>
<path d="M0 0 C0.75 -0.03 1.5 -0.06 2.28 -0.09 C7.92 -0.15 12.16 1.16 16.88 4.31 C20.69 8.43 22 10.87 21.99 16.4 C21.99 17.47 21.99 18.53 21.99 19.62 C21.98 20.77 21.98 21.92 21.97 23.1 C21.97 24.28 21.97 25.45 21.97 26.66 C21.96 30.42 21.95 34.18 21.94 37.94 C21.93 40.48 21.93 43.03 21.92 45.57 C21.91 51.82 21.9 58.07 21.88 64.31 C19.24 64.31 16.6 64.31 13.88 64.31 C12.41 61.67 11.88 60.42 11.88 57.31 C11.19 57.64 10.5 57.96 9.79 58.3 C-8.39 66.75 -8.39 66.75 -17.12 65.31 C-22.67 63.28 -26.5 59.57 -29.12 54.31 C-29.3 51.38 -29.4 48.5 -29.44 45.56 C-29.47 44.76 -29.5 43.96 -29.53 43.14 C-29.58 37.7 -28.86 34.54 -25.12 30.31 C-20.61 26.73 -17.71 25.82 -11.98 25.92 C-11.32 25.93 -10.66 25.93 -9.98 25.94 C-7.91 25.96 -5.83 26.01 -3.75 26.06 C-2.33 26.08 -0.91 26.1 0.5 26.12 C3.96 26.16 7.42 26.23 10.88 26.31 C10.84 24.37 10.77 22.44 10.69 20.5 C10.65 19.42 10.62 18.34 10.58 17.23 C10.14 14.19 10.14 14.19 7.79 12.44 C4.15 11.03 1.29 10.97 -2.61 11.02 C-3.32 11.02 -4.02 11.03 -4.74 11.03 C-6.98 11.05 -9.21 11.09 -11.44 11.12 C-12.96 11.14 -14.48 11.15 -15.99 11.17 C-19.7 11.2 -23.41 11.25 -27.12 11.31 C-27.12 8.67 -27.12 6.03 -27.12 3.31 C-18.12 0.81 -9.32 0.2 0 0 Z " fill="#3A456E" transform="translate(436.125,44.6875)"/>
<path d="M0 0 C1.64 -0.04 1.64 -0.04 3.31 -0.09 C10.31 -0.1 15.23 0.78 20.56 5.5 C25.48 12 25.24 19.64 24.56 27.5 C23.36 31.55 21.52 33.91 17.87 36.16 C14.06 37.7 11.3 37.84 7.2 37.79 C6.18 37.79 6.18 37.79 5.14 37.78 C2.99 37.76 0.84 37.73 -1.31 37.69 C-2.78 37.67 -4.24 37.66 -5.71 37.65 C-9.29 37.61 -12.86 37.56 -16.44 37.5 C-16.01 39.63 -15.57 41.75 -15.12 43.88 C-14.88 45.06 -14.64 46.24 -14.39 47.46 C-13.7 50.78 -13.7 50.78 -10.44 52.5 C-7.82 52.67 -5.32 52.73 -2.71 52.7 C-1.96 52.69 -1.21 52.69 -0.43 52.69 C1.96 52.68 4.36 52.65 6.75 52.62 C8.37 52.61 10 52.61 11.62 52.6 C15.6 52.58 19.58 52.54 23.56 52.5 C23.56 55.47 23.56 58.44 23.56 61.5 C15.07 63.41 6.88 63.84 -1.81 63.81 C-3.06 63.83 -4.3 63.84 -5.58 63.86 C-6.78 63.86 -7.98 63.86 -9.21 63.86 C-10.29 63.87 -11.36 63.87 -12.47 63.87 C-17.04 63.3 -19.59 61.44 -22.62 58.06 C-28.43 49.86 -27.65 40.8 -27.69 31.06 C-27.71 29.87 -27.73 28.68 -27.75 27.46 C-27.79 19.33 -27.15 12.89 -22.19 6.19 C-15.66 -0.19 -8.7 -0.02 0 0 Z " fill="#3B466F" transform="translate(246.4375,45.5)"/>
<path d="M0 0 C1.05 -0.01 2.11 -0.02 3.2 -0.04 C9.93 -0.01 15.44 0.31 20.74 4.88 C24.6 9.99 25.17 13.34 25.25 19.69 C25.28 20.98 25.3 22.28 25.33 23.61 C24.91 28.46 23.63 31.9 20 35.19 C15.95 37.59 12.54 37.49 7.93 37.47 C6.9 37.47 6.9 37.47 5.85 37.47 C3.67 37.46 1.49 37.45 -0.69 37.44 C-2.17 37.43 -3.65 37.43 -5.13 37.42 C-8.75 37.41 -12.38 37.4 -16 37.38 C-15.69 38.96 -15.38 40.54 -15.06 42.12 C-14.89 43.01 -14.71 43.89 -14.54 44.8 C-14.36 45.65 -14.18 46.5 -14 47.38 C-13.87 48.12 -13.75 48.87 -13.62 49.64 C-13.42 50.21 -13.21 50.79 -13 51.38 C-9.37 52.59 -6.05 52.5 -2.27 52.47 C-1.52 52.47 -0.77 52.47 0 52.47 C2.4 52.46 4.79 52.45 7.19 52.44 C8.81 52.43 10.44 52.43 12.06 52.42 C16.04 52.41 20.02 52.4 24 52.38 C24 55.34 24 58.31 24 61.38 C16.58 63.41 9.51 63.75 1.83 63.75 C-0.19 63.75 -2.22 63.79 -4.25 63.82 C-5.54 63.83 -6.84 63.83 -8.17 63.84 C-9.92 63.85 -9.92 63.85 -11.71 63.86 C-16.52 63.15 -19.52 60.99 -22.77 57.44 C-27.38 49.72 -27.47 40.54 -27.38 31.81 C-27.39 30.75 -27.4 29.69 -27.41 28.6 C-27.38 20.66 -26.65 12.5 -21.75 5.94 C-15.18 -0.18 -8.58 -0.09 0 0 Z " fill="#3B466F" transform="translate(58,45.625)"/>
<path d="M0 0 C3.35 2.89 5.1 6.15 6.48 10.28 C6.57 11.95 6.6 13.63 6.59 15.3 C6.59 16.32 6.59 17.34 6.59 18.39 C6.59 19.49 6.58 20.59 6.58 21.73 C6.58 22.85 6.58 23.98 6.57 25.14 C6.57 28.75 6.56 32.36 6.54 35.96 C6.54 38.41 6.53 40.85 6.53 43.29 C6.52 49.29 6.5 55.28 6.48 61.28 C4.5 61.28 2.52 61.28 0.48 61.28 C-0.01 58.31 -0.01 58.31 -0.52 55.28 C-2.02 55.71 -3.52 56.15 -5.02 56.59 C-5.95 56.86 -6.87 57.13 -7.82 57.41 C-10.73 58.28 -10.73 58.28 -14.14 59.96 C-18.21 61.52 -22.34 61.67 -26.64 61.78 C-27.33 61.81 -28.01 61.84 -28.71 61.87 C-32.59 61.87 -34.55 61.25 -37.82 59.12 C-42.53 54.16 -43.94 50.2 -43.89 43.4 C-43.57 31.44 -43.57 31.44 -39.15 26.86 C-32.23 21.74 -24.2 22.73 -16.02 22.96 C-14.51 22.99 -13.01 23.01 -11.5 23.03 C-7.84 23.09 -4.18 23.17 -0.52 23.28 C-0.63 21.36 -0.76 19.44 -0.89 17.53 C-1 15.93 -1 15.93 -1.11 14.29 C-1.5 11.45 -1.98 9.67 -3.52 7.28 C-8.09 4.44 -13.39 5.02 -18.58 5.09 C-19.51 5.1 -20.45 5.1 -21.41 5.11 C-28.15 5.18 -34.82 5.5 -41.52 6.28 C-41.52 4.63 -41.52 2.98 -41.52 1.28 C-30.23 -2.71 -10.99 -6.82 0 0 Z " fill="#CAA562" transform="translate(582.51953125,149.72265625)"/>
<path d="M0 0 C0.69 -0.01 1.38 -0.03 2.09 -0.04 C7.41 0.01 11.47 1.25 15.39 4.91 C18.65 9.16 19.88 11.16 19.86 16.47 C19.86 17.53 19.86 18.59 19.86 19.68 C19.86 20.83 19.85 21.98 19.85 23.16 C19.85 24.34 19.84 25.51 19.84 26.72 C19.84 30.48 19.83 34.24 19.81 38 C19.81 40.54 19.8 43.09 19.8 45.63 C19.79 51.88 19.77 58.13 19.75 64.38 C18.1 64.38 16.45 64.38 14.75 64.38 C14.25 60.91 14.25 60.91 13.75 57.38 C12.53 57.86 12.53 57.86 11.29 58.36 C-10.39 66.92 -10.39 66.92 -20.25 64.38 C-24.75 62.09 -27.14 59.94 -29.25 55.38 C-29.68 52.2 -29.67 49.07 -29.62 45.88 C-29.64 44.61 -29.64 44.61 -29.66 43.32 C-29.64 38.52 -29.36 35.27 -26.25 31.38 C-21.32 27.04 -18.48 26.23 -12.05 26.28 C-11.35 26.28 -10.64 26.28 -9.91 26.28 C-7.65 26.29 -5.39 26.3 -3.12 26.31 C-1.59 26.32 -0.06 26.32 1.47 26.33 C5.23 26.34 8.99 26.35 12.75 26.38 C12.72 24.31 12.65 22.25 12.56 20.19 C12.51 18.46 12.51 18.46 12.46 16.71 C11.54 12.4 10.32 10.93 6.75 8.38 C3.89 7.94 1.66 7.78 -1.18 7.89 C-1.92 7.89 -2.67 7.9 -3.44 7.91 C-5.82 7.94 -8.19 8 -10.56 8.06 C-12.18 8.09 -13.79 8.11 -15.41 8.13 C-19.36 8.19 -23.3 8.27 -27.25 8.38 C-27.25 6.72 -27.25 5.07 -27.25 3.38 C-18.19 1.59 -9.26 0.07 0 0 Z " fill="#CAA461" transform="translate(436.25,146.625)"/>
<path d="M0 0 C3.96 0 7.92 0 12 0 C12 11.88 12 23.76 12 36 C15.96 34.02 19.92 32.04 24 30 C29.5 28.17 35.97 27.82 41.43 29.94 C47.57 33.63 51.2 38.01 53 45 C53.27 48.7 53.23 52.38 53.2 56.09 C53.19 57.14 53.19 58.2 53.19 59.29 C53.18 62.65 53.15 66.01 53.12 69.38 C53.11 71.66 53.11 73.95 53.1 76.23 C53.08 81.82 53.04 87.41 53 93 C49.04 93 45.08 93 41 93 C40.99 91.57 40.97 90.13 40.96 88.66 C40.9 83.34 40.82 78.03 40.74 72.71 C40.7 70.41 40.68 68.11 40.65 65.81 C40.62 62.5 40.57 59.2 40.51 55.89 C40.51 54.86 40.5 53.83 40.49 52.77 C40.46 51.33 40.46 51.33 40.43 49.86 C40.42 48.59 40.42 48.59 40.4 47.3 C39.91 44.47 38.97 43.07 37 41 C29.55 39.58 22.7 40.93 15.93 44.12 C14 45 14 45 12 45 C12 60.84 12 76.68 12 93 C8.04 93 4.08 93 0 93 C0 62.31 0 31.62 0 0 Z " fill="#434D74" transform="translate(345,16)"/>
<path d="M0 0 C4.72 3.48 7.6 7.26 9.5 12.81 C9.74 15.27 9.74 15.27 9.73 17.88 C9.73 18.86 9.73 19.84 9.73 20.85 C9.72 21.9 9.71 22.94 9.7 24.02 C9.69 25.1 9.69 26.18 9.69 27.29 C9.68 30.74 9.65 34.18 9.62 37.62 C9.61 39.96 9.61 42.3 9.6 44.64 C9.58 50.36 9.54 56.09 9.5 61.81 C5.54 61.81 1.58 61.81 -2.5 61.81 C-2.51 60.34 -2.53 58.88 -2.54 57.36 C-2.6 51.92 -2.68 46.48 -2.76 41.04 C-2.8 38.69 -2.82 36.33 -2.85 33.97 C-2.88 30.59 -2.93 27.21 -2.99 23.82 C-2.99 22.77 -3 21.71 -3.01 20.62 C-3.04 19.15 -3.04 19.15 -3.07 17.65 C-3.08 16.36 -3.08 16.36 -3.1 15.03 C-3.59 12.33 -4.3 11.43 -6.5 9.81 C-14.1 8.73 -21.05 9.27 -27.83 12.94 C-29.5 13.81 -29.5 13.81 -31.5 13.81 C-31.5 29.65 -31.5 45.49 -31.5 61.81 C-35.46 61.81 -39.42 61.81 -43.5 61.81 C-43.5 41.02 -43.5 20.23 -43.5 -1.19 C-40.53 -1.19 -37.56 -1.19 -34.5 -1.19 C-32.5 2.81 -32.5 2.81 -32.5 5.81 C-31.85 5.4 -31.2 4.99 -30.52 4.57 C-21.32 -1.1 -10.38 -6.18 0 0 Z " fill="#414B73" transform="translate(324.5,47.1875)"/>
<path d="M0 0 C4.4 3.7 7.64 7.57 8.26 13.47 C8.35 16.49 8.34 19.5 8.29 22.52 C8.29 23.62 8.28 24.73 8.28 25.86 C8.26 29.37 8.23 32.87 8.19 36.38 C8.17 38.76 8.16 41.14 8.15 43.52 C8.11 49.35 8.06 55.17 8 61 C4.37 61 0.74 61 -3 61 C-3.03 58.9 -3.03 58.9 -3.06 56.75 C-3.14 51.55 -3.22 46.34 -3.32 41.14 C-3.36 38.89 -3.39 36.63 -3.42 34.38 C-3.47 31.15 -3.53 27.91 -3.59 24.67 C-3.6 23.66 -3.61 22.66 -3.62 21.62 C-3.64 20.68 -3.66 19.74 -3.68 18.77 C-3.69 17.94 -3.71 17.12 -3.72 16.27 C-4.03 13.76 -4.66 12.13 -6 10 C-10.99 7.5 -17.97 8.43 -23.17 9.89 C-25.07 10.6 -26.95 11.34 -28.82 12.12 C-31 13 -31 13 -33 13 C-33 28.84 -33 44.68 -33 61 C-36.63 61 -40.26 61 -44 61 C-44 40.21 -44 19.42 -44 -2 C-41.36 -2 -38.72 -2 -36 -2 C-35.01 -0.02 -34.02 1.96 -33 4 C-32.18 3.58 -31.36 3.16 -30.52 2.72 C-28.9 1.9 -28.9 1.9 -27.25 1.06 C-26.18 0.52 -25.12 -0.03 -24.02 -0.59 C-16.15 -4.27 -7.63 -4.34 0 0 Z " fill="#38446D" transform="translate(138,48)"/>
<path d="M0 0 C2.31 0 4.62 0 7 0 C7 30.69 7 61.38 7 93 C5.35 93 3.7 93 2 93 C1.67 91.02 1.34 89.04 1 87 C0.02 87.43 -0.96 87.87 -1.97 88.31 C-11.25 92.22 -19.8 94.86 -30 93 C-33.83 90.89 -36.53 88.91 -38.75 85.12 C-39.33 84.17 -39.33 84.17 -39.92 83.2 C-45.36 72.12 -45.92 54.78 -42.03 43.08 C-38.93 36.34 -34.88 31.98 -28 29 C-18.81 27.41 -8.81 30.9 0 33 C0 22.11 0 11.22 0 0 Z M-32.52 40.81 C-38.15 49.13 -37.86 60.36 -37 70 C-35.83 75.56 -33.99 81.86 -29.08 85.26 C-19.89 88.54 -9.6 85.75 -1 82 C0.46 80.77 0.46 80.77 0.11 77.03 C0.11 75.26 0.11 73.49 0.1 71.71 C0.1 70.32 0.1 70.32 0.09 68.89 C0.09 65.91 0.08 62.92 0.06 59.94 C0.06 57.92 0.05 55.9 0.05 53.88 C0.04 48.92 0.02 43.96 0 39 C-2.37 38.5 -4.74 38.01 -7.12 37.52 C-7.78 37.38 -8.45 37.24 -9.13 37.1 C-17.5 35.39 -26.46 33.58 -32.52 40.81 Z " fill="#CAA460" transform="translate(387,118)"/>
<path d="M0 0 C0.86 -0.03 1.72 -0.06 2.61 -0.09 C9.61 -0.16 15.88 1.2 21.2 6.02 C28.85 14.23 28.58 25.08 28.46 35.71 C28.12 43.99 27.45 50.86 22.34 57.59 C15.7 63.23 9.32 63.94 0.81 63.81 C-0.68 63.84 -0.68 63.84 -2.2 63.86 C-8.48 63.83 -13.51 63.05 -18.69 59.31 C-26.07 51.56 -26.03 42.11 -26 31.94 C-26.02 30.87 -26.03 29.79 -26.05 28.69 C-26.05 20.76 -25.63 13.05 -20.57 6.62 C-19.42 5.69 -19.42 5.69 -18.25 4.75 C-17.11 3.79 -17.11 3.79 -15.94 2.81 C-11.09 -0.41 -5.63 0.06 0 0 Z M-15.44 11.62 C-19.67 17.34 -19.02 24.43 -19 31.19 C-19.02 32.24 -19.03 33.29 -19.05 34.37 C-19.05 41.72 -18.48 47.8 -13.75 53.75 C-9.5 56.97 -4.52 56.53 0.62 56.56 C1.73 56.59 1.73 56.59 2.85 56.62 C7.96 56.66 11.86 56.07 16.31 53.31 C21.6 47.24 20.88 39.27 20.75 31.69 C20.76 30.49 20.76 29.28 20.77 28.05 C20.78 19.73 20.78 19.73 17.31 12.31 C12.04 7.55 8.51 7.11 1.56 7.06 C0.76 7.04 -0.04 7.02 -0.86 7 C-6.7 6.96 -10.67 8.05 -15.44 11.62 Z " fill="#CAA562" transform="translate(245.6875,147.6875)"/>
<path d="M0 0 C1.02 0.01 2.04 0.02 3.1 0.03 C10.78 0.14 18.41 0.51 26.06 1.25 C26.06 3.23 26.06 5.21 26.06 7.25 C24.44 7.28 24.44 7.28 22.79 7.31 C18.79 7.39 14.79 7.47 10.79 7.57 C9.06 7.61 7.33 7.64 5.59 7.67 C3.11 7.72 0.62 7.78 -1.87 7.84 C-2.64 7.85 -3.42 7.86 -4.22 7.87 C-8.54 7.84 -8.54 7.84 -11.94 10.25 C-12.14 12.8 -12.22 15.21 -12.19 17.75 C-12.2 18.44 -12.2 19.13 -12.21 19.84 C-12.31 24 -12.31 24 -9.94 27.25 C-7.02 27.56 -7.02 27.56 -3.61 27.52 C-2.33 27.54 -1.06 27.56 0.25 27.59 C2.28 27.61 4.3 27.62 6.33 27.63 C8.29 27.64 10.25 27.68 12.2 27.71 C13.96 27.72 13.96 27.72 15.75 27.74 C20.74 28.51 23.79 31.06 27.41 34.44 C29.74 38.39 29.65 41.68 29.56 46.19 C29.58 46.97 29.59 47.76 29.61 48.57 C29.57 53.91 28.61 57.03 25.06 61.25 C21.73 63.47 20.68 63.5 16.79 63.48 C15.22 63.48 15.22 63.48 13.62 63.48 C12.51 63.46 11.39 63.45 10.25 63.44 C9.13 63.43 8 63.42 6.84 63.42 C-1.12 63.34 -9.01 63.04 -16.94 62.25 C-16.94 60.27 -16.94 58.29 -16.94 56.25 C-15.32 56.23 -15.32 56.23 -13.66 56.21 C-9.66 56.15 -5.67 56.07 -1.67 55.99 C0.07 55.95 1.8 55.93 3.53 55.9 C6.02 55.87 8.5 55.82 10.99 55.76 C11.77 55.76 12.55 55.75 13.35 55.74 C15.76 55.71 15.76 55.71 19.06 55.25 C21.43 51.71 21.39 49.96 21.44 45.75 C21.48 44.03 21.48 44.03 21.52 42.28 C21.36 39.23 21.36 39.23 19.44 37.58 C16.33 35.84 14.1 35.88 10.54 35.88 C9.27 35.86 8 35.84 6.7 35.83 C4.03 35.81 1.37 35.81 -1.3 35.81 C-3.2 35.78 -3.2 35.78 -5.15 35.75 C-6.31 35.75 -7.46 35.75 -8.66 35.75 C-13.14 35.07 -16.45 33.12 -19.29 29.55 C-20.33 25.85 -20.31 22.21 -20.31 18.38 C-20.34 17.58 -20.36 16.79 -20.39 15.98 C-20.41 10.6 -19.61 7.44 -15.94 3.25 C-11.34 -0.89 -5.84 -0.12 0 0 Z " fill="#CAA562" transform="translate(178.9375,147.75)"/>
<path d="M0 0 C2.97 0 5.94 0 9 0 C9.99 2.31 10.98 4.62 12 7 C12.69 6.58 13.37 6.16 14.08 5.72 C14.98 5.17 15.88 4.63 16.81 4.06 C17.71 3.52 18.6 2.97 19.52 2.41 C24.08 -0.18 28.08 -0.12 33.19 -0.06 C33.94 -0.06 34.69 -0.05 35.46 -0.05 C37.31 -0.04 39.15 -0.02 41 0 C41 3.63 41 7.26 41 11 C39.96 11.03 38.92 11.05 37.85 11.08 C30.36 11.35 23.9 11.79 17.02 15.06 C15 16 15 16 11 17 C11 32.18 11 47.36 11 63 C7.37 63 3.74 63 0 63 C0 42.21 0 21.42 0 0 Z " fill="#3B466F" transform="translate(470,46)"/>
<path d="M0 0 C0.96 0 1.92 0.01 2.91 0.01 C5.25 0.03 7.6 0.04 9.94 0.06 C9.94 6.33 9.94 12.6 9.94 19.06 C7.3 20.05 4.66 21.04 1.94 22.06 C1.11 22.38 0.28 22.69 -0.57 23.01 C-7.18 25.25 -14.13 26.26 -21.06 25.06 C-23.41 23.54 -23.41 23.54 -25.06 21.06 C-25.49 18.23 -25.67 15.89 -25.62 13.06 C-25.65 12.35 -25.67 11.64 -25.7 10.91 C-25.69 7.35 -25.34 5.41 -23.09 2.62 C-16.1 -0.98 -7.69 -0.07 0 0 Z " fill="#FEFDFD" transform="translate(572.0625,178.9375)"/>
<path d="M0 0 C4.6 -0.04 9.19 -0.01 13.79 0.03 C13.79 6.3 13.79 12.57 13.79 19.03 C4.11 23.64 -6.33 27.11 -17.21 25.03 C-20.24 22.34 -21.11 20.65 -21.78 16.65 C-21.77 7.16 -21.77 7.16 -19.59 2.71 C-13.43 -0.37 -6.75 0.08 0 0 Z " fill="#FEFEFD" transform="translate(435.21142578125,178.974609375)"/>
<path d="M0 0 C2.31 0 4.62 0 7 0 C7.01 0.97 7.01 1.93 7.02 2.93 C7.08 12.04 7.15 21.14 7.24 30.25 C7.28 34.93 7.32 39.62 7.35 44.3 C7.37 48.82 7.41 53.34 7.46 57.86 C7.48 59.58 7.49 61.3 7.5 63.03 C7.51 65.44 7.54 67.86 7.57 70.27 C7.57 70.98 7.56 71.69 7.56 72.43 C7.65 76.76 8.27 79.59 11 83 C14.38 84.47 14.38 84.47 18.19 85.31 C19.46 85.64 20.73 85.96 22.04 86.3 C23.02 86.53 23.99 86.76 25 87 C25 88.65 25 90.3 25 92 C22.62 92.11 20.25 92.19 17.88 92.25 C17.21 92.28 16.54 92.32 15.86 92.35 C10.68 92.45 7.84 91.46 4 88 C0.49 82.7 -0.58 78.02 -0.45 71.75 C-0.45 70.97 -0.46 70.19 -0.46 69.38 C-0.45 66.83 -0.42 64.27 -0.39 61.72 C-0.38 59.94 -0.38 58.15 -0.37 56.37 C-0.36 51.7 -0.32 47.03 -0.27 42.37 C-0.23 37.59 -0.22 32.82 -0.2 28.05 C-0.15 18.7 -0.08 9.35 0 0 Z " fill="#CBA664" transform="translate(288,119)"/>
<path d="M0 0 C4.06 -0.07 8.11 -0.13 12.17 -0.16 C13.55 -0.18 14.93 -0.2 16.31 -0.23 C18.29 -0.26 20.28 -0.28 22.27 -0.29 C23.46 -0.31 24.65 -0.32 25.88 -0.34 C29.27 0.03 30.66 0.55 33 3 C33.46 6.21 33.46 6.21 33.38 9.94 C33.36 11.16 33.35 12.39 33.34 13.65 C33.03 16.72 32.71 18.48 31 21 C26.77 23.11 21.27 22.32 16.62 22.38 C15.48 22.41 14.33 22.45 13.14 22.49 C4.81 22.58 4.81 22.58 1.23 20.03 C-0.42 15.95 -0.44 12.53 -0.25 8.19 C-0.23 7.4 -0.21 6.61 -0.2 5.8 C-0.15 3.87 -0.08 1.93 0 0 Z " fill="#F9F9FA" transform="translate(167,108)"/>
<path d="M0 0 C3.63 0 7.26 0 11 0 C11 20.79 11 41.58 11 63 C7.37 63 3.74 63 0 63 C0 42.21 0 21.42 0 0 Z " fill="#3B456E" transform="translate(520,46)"/>
<path d="M0 0 C1.2 -0.03 2.41 -0.05 3.64 -0.08 C7.53 0.28 9.9 1.18 13.19 3.25 C15.56 7.99 16.08 13.03 14.65 18.18 C13.69 20.71 12.82 22.78 10.61 24.42 C7.02 25.65 3.49 25.66 -0.25 25.69 C-1 25.72 -1.75 25.75 -2.53 25.79 C-6.75 25.83 -8.34 25.62 -11.79 22.91 C-15.6 17.91 -15.62 12.33 -14.81 6.25 C-10.61 0.57 -6.77 0.09 0 0 Z " fill="#FBFBFC" transform="translate(182.8125,55.75)"/>
<path d="M0 0 C1.65 0 3.3 0 5 0 C5.99 2.31 6.98 4.62 8 7 C8.83 6.58 9.66 6.16 10.52 5.72 C11.61 5.17 12.69 4.63 13.81 4.06 C14.89 3.52 15.97 2.97 17.08 2.41 C20.56 0.73 23.18 -0.13 27.01 -0.1 C28.15 -0.09 28.15 -0.09 29.31 -0.09 C30.49 -0.08 30.49 -0.08 31.69 -0.06 C32.48 -0.06 33.28 -0.05 34.1 -0.05 C36.07 -0.04 38.03 -0.02 40 0 C40 2.31 40 4.62 40 7 C38.96 7.04 37.92 7.07 36.85 7.11 C26.1 7.59 17.75 9.13 8 14 C7.67 30.17 7.34 46.34 7 63 C4.69 63 2.38 63 0 63 C0 42.21 0 21.42 0 0 Z " fill="#CAA461" transform="translate(470,148)"/>
<path d="M0 0 C0 4.95 0 9.9 0 15 C-19.73 21.85 -19.73 21.85 -26 20 C-28.81 17.2 -29.45 14.98 -29.5 11.06 C-29.36 7.49 -29.05 6.09 -27.19 2.94 C-19.48 -1.75 -8.71 -0.09 0 0 Z " fill="#FBFBFC" transform="translate(447,79)"/>
<path d="M0 0 C0 4.95 0 9.9 0 15 C-16.35 20.12 -16.35 20.12 -22.69 20.25 C-23.84 20.29 -23.84 20.29 -25.01 20.33 C-25.67 20.22 -26.32 20.11 -27 20 C-29.28 16.58 -29.33 15.1 -29.38 11.06 C-29.4 10.02 -29.43 8.98 -29.46 7.91 C-29 5 -29 5 -27.42 2.67 C-24.17 0.43 -21.8 0.4 -17.88 0.25 C-16.88 0.21 -16.88 0.21 -15.87 0.16 C-10.58 -0.05 -5.29 -0.08 0 0 Z " fill="#FAFAFB" transform="translate(582,79)"/>
<path d="M0 0 C1.05 -0.02 1.05 -0.02 2.13 -0.05 C5.19 -0.05 7.54 0.15 10.31 1.49 C12.4 3.92 12.57 5.64 12.81 8.81 C12.9 9.77 13 10.73 13.09 11.72 C12.88 14.31 12.88 14.31 11.75 15.96 C9.04 17.92 6.99 17.65 3.68 17.61 C2.47 17.6 1.26 17.59 0.01 17.58 C-1.25 17.55 -2.51 17.53 -3.81 17.5 C-5.72 17.48 -5.72 17.48 -7.67 17.46 C-10.82 17.42 -13.97 17.37 -17.12 17.31 C-17.16 15.88 -17.18 14.46 -17.2 13.03 C-17.21 12.23 -17.22 11.44 -17.23 10.62 C-17.07 7.18 -16.15 5.08 -14.12 2.31 C-9.46 0.27 -5.02 -0.02 0 0 Z " fill="#FBFBFC" transform="translate(247.125,55.6875)"/>
<path d="M0 0 C0.82 -0.02 1.63 -0.04 2.47 -0.06 C8.49 -0.1 8.49 -0.1 11.65 1.66 C14.29 4.51 14.11 7 14.38 10.81 C14.12 14.25 14.12 14.25 13 15.95 C10.28 17.84 8.21 17.59 4.93 17.54 C3.72 17.53 2.51 17.52 1.26 17.51 C0 17.49 -1.26 17.46 -2.56 17.44 C-4.47 17.42 -4.47 17.42 -6.42 17.4 C-9.57 17.36 -12.72 17.31 -15.88 17.25 C-15.76 15.48 -15.63 13.71 -15.5 11.95 C-15.43 10.96 -15.36 9.98 -15.28 8.96 C-14.75 5.44 -13.49 3.63 -10.88 1.25 C-7.5 -0.44 -3.71 0.02 0 0 Z " fill="#FCFCFD" transform="translate(57.875,55.75)"/>
<path d="M0 0 C2.31 0 4.62 0 7 0 C7 20.79 7 41.58 7 63 C4.69 63 2.38 63 0 63 C0 42.21 0 21.42 0 0 Z " fill="#CAA460" transform="translate(520,148)"/>
<path d="M0 0 C2.31 0 4.62 0 7 0 C7 20.79 7 41.58 7 63 C4.69 63 2.38 63 0 63 C0 42.21 0 21.42 0 0 Z " fill="#CAA460" transform="translate(322,148)"/>
<path d="M0 0 C1.5 0 1.5 0 3.03 0.01 C4.03 0.01 5.03 0 6.06 0 C8.53 0.13 8.53 0.13 9.53 1.13 C9.6 3.15 9.62 5.17 9.59 7.2 C9.58 8.3 9.58 9.4 9.57 10.54 C9.55 11.4 9.54 12.25 9.53 13.13 C7.03 14.38 5.26 14.27 2.47 14.26 C1.12 14.26 1.12 14.26 -0.25 14.27 C-2.47 14.13 -2.47 14.13 -3.47 13.13 C-3.57 11.13 -3.6 9.13 -3.59 7.13 C-3.6 6.04 -3.6 4.95 -3.6 3.82 C-3.42 0.18 -3.42 0.18 0 0 Z " fill="#3C4770" transform="translate(522.46875,25.8671875)"/>
<path d="M0 0 C2.31 0.27 2.31 0.27 4 0.62 C4 1.28 4 1.94 4 2.62 C2.5 4.11 2.5 4.11 0.44 5.81 C-2.47 8.25 -5.07 10.76 -7.62 13.56 C-10.16 16.17 -10.65 16.58 -14.44 17.06 C-15.28 16.92 -16.13 16.77 -17 16.62 C-15.71 14.58 -14.37 12.61 -13 10.62 C-12.43 9.76 -11.86 8.89 -11.27 8 C-5.55 -0.03 -5.55 -0.03 0 0 Z " fill="#CBA664" transform="translate(447,123.375)"/>
<path d="M0 0 C0.72 0 1.44 0.01 2.19 0.01 C2.91 0.01 3.63 0 4.38 0 C6.19 0.13 6.19 0.13 7.19 1.13 C7.33 4.47 7.23 7.79 7.19 11.13 C3.89 11.13 0.59 11.13 -2.81 11.13 C-2.91 3.42 -2.91 3.42 -2.81 1.13 C-1.81 0.13 -1.81 0.13 0 0 Z " fill="#CDA969" transform="translate(323.8125,128.8671875)"/>
<path d="M0 0 C3.5 0.12 3.5 0.12 4.5 1.12 C4.6 2.79 4.63 4.46 4.62 6.12 C4.63 7.03 4.63 7.94 4.63 8.88 C4.5 11.12 4.5 11.12 3.5 12.12 C0 12.25 0 12.25 -3.5 12.12 C-4.5 11.12 -4.5 11.12 -4.63 8.88 C-4.63 7.97 -4.63 7.06 -4.62 6.12 C-4.63 5.22 -4.63 4.31 -4.63 3.38 C-4.41 -0.33 -3.86 0.14 0 0 Z " fill="#CAA461" transform="translate(523.5,128.875)"/>
</svg>
